<svg width="256" height="256" viewBox="0 0 256 256" xmlns="http://www.w3.org/2000/svg" fill="none">
  <defs>
    <linearGradient id="g" x1="0" y1="0" x2="1" y2="1">
      <stop offset="0%" stop-color="#FF8A00"/>
      <stop offset="100%" stop-color="#FF5E17"/>
    </linearGradient>
  </defs>
  <rect rx="48" ry="48" x="16" y="16" width="224" height="224" fill="url(#g)"/>
  <g fill="#fff">
    <path d="M100 176h44c24 0 40-14 40-34 0-14-8-24-22-28 10-4 16-12 16-23 0-18-16-31-38-31H88v116h12zm40-64c10 0 18 6 18 16s-8 16-18 16h-28v-32h28zm2-48c10 0 18 6 18 15s-8 15-18 15h-30V64h30z"/>
  </g>
</svg>
