<svg width="64" height="64" viewBox="0 0 256 256" xmlns="http://www.w3.org/2000/svg" fill="none">
  <defs>
    <linearGradient id="f" x1="0" y1="0" x2="1" y2="1">
      <stop offset="0%" stop-color="#FF8A00"/>
      <stop offset="100%" stop-color="#FF5E17"/>
    </linearGradient>
  </defs>
  <rect rx="56" ry="56" x="16" y="16" width="224" height="224" fill="url(#f)"/>
  <g fill="#fff">
    <path d="M102 170h40c22 0 36-12 36-30 0-12-8-22-20-24 10-4 16-12 16-22 0-16-14-28-34-28H90v104h12zm36-56c10 0 18 6 18 16s-8 16-18 16h-24v-32h24zm2-46c10 0 18 6 18 14s-8 14-18 14h-26V68h26z"/>
  </g>
</svg>
